<?xml version="1.0" encoding="UTF-8" standalone="no"?>
<!DOCTYPE svg PUBLIC "-//W3C//DTD SVG 1.1//EN" "http://www.w3.org/Graphics/SVG/1.1/DTD/svg11.dtd">
<svg width="100%" height="100%" viewBox="0 0 535 253" version="1.1" xmlns="http://www.w3.org/2000/svg" xmlns:xlink="http://www.w3.org/1999/xlink" xml:space="preserve" xmlns:serif="http://www.serif.com/" style="fill-rule:evenodd;clip-rule:evenodd;stroke-linejoin:round;stroke-miterlimit:2;">
    <g transform="matrix(1,0,0,1,-916.322,-279.203)">
        <g transform="matrix(1.10256,-0.267125,0.267125,1.10256,-256.892,297.056)">
            <path d="M987.043,426.393C986.317,426.393 985.5,425.803 984.593,424.623C983.686,423.444 983.277,422.309 983.368,421.221C983.459,419.769 983.867,417.681 984.593,414.959C985.319,412.237 986.136,409.469 987.043,406.656C987.951,403.843 988.767,401.62 989.493,399.986C989.856,398.534 990.196,397.241 990.514,396.107C990.832,394.973 991.036,394.224 991.127,393.861C991.399,393.498 991.83,392.545 992.42,391.003C993.01,389.46 993.486,387.963 993.849,386.511C994.03,385.785 994.416,384.401 995.006,382.359C995.596,380.317 996.322,377.935 997.184,375.213C998.046,372.491 998.908,369.814 999.77,367.182C1000.63,364.55 1001.38,362.236 1002.02,360.24C1002.65,358.244 1003.06,356.928 1003.24,356.293C1003.97,355.204 1004.51,354.16 1004.87,353.162C1005.24,352.164 1005.46,351.483 1005.56,351.12C1006.1,350.757 1006.42,350.281 1006.51,349.691C1006.6,349.101 1006.64,348.625 1006.64,348.262C1006.64,347.808 1006.8,347.445 1007.12,347.173C1007.44,346.901 1007.6,346.583 1007.6,346.22C1007.96,345.948 1008.19,345.517 1008.28,344.927C1008.37,344.337 1008.64,343.815 1009.09,343.361L1009.77,341.047L1017.81,340.911C1017.62,342 1017.35,343.339 1016.99,344.927C1016.63,346.515 1015.76,348.625 1014.4,351.256C1013.95,353.071 1013.43,354.705 1012.84,356.156C1012.25,357.608 1012,358.561 1012.09,359.015C1011.91,359.196 1011.52,360.104 1010.93,361.737C1010.34,363.371 1009.66,365.367 1008.89,367.726C1008.12,370.086 1007.35,372.445 1006.58,374.805C1005.81,377.164 1005.12,379.228 1004.53,380.998C1003.94,382.767 1003.56,383.879 1003.38,384.333C1002.65,385.785 1001.83,387.917 1000.93,390.73C1000.02,393.543 998.658,397.355 996.844,402.164C996.118,403.616 995.233,405.794 994.189,408.698C993.146,411.602 992.306,414.233 991.671,416.593C990.673,420.132 989.97,422.604 989.561,424.011C989.153,425.417 988.813,426.189 988.54,426.325C988.268,426.461 987.769,426.484 987.043,426.393ZM988.132,345.267C985.591,345.358 983.708,345.222 982.483,344.859C981.258,344.496 980.827,343.588 981.19,342.136C981.462,341.047 982.052,340.231 982.96,339.686C983.867,339.142 985.183,338.733 986.907,338.461C987.905,338.28 989.198,338.053 990.786,337.781C992.374,337.508 993.894,337.236 995.346,336.964C998.341,336.601 1000.81,336.283 1002.76,336.011C1004.72,335.739 1006.74,335.512 1008.82,335.331C1010.91,335.149 1013.54,334.968 1016.72,334.786C1019.35,334.605 1021.59,334.446 1023.45,334.31C1025.32,334.174 1026.25,334.105 1026.25,334.105C1026.52,334.105 1027.47,334.196 1029.1,334.378C1030.74,334.559 1032.51,334.786 1034.41,335.058C1036.32,335.331 1037.72,335.648 1038.63,336.011C1040.72,336.465 1042.24,337.1 1043.19,337.917C1044.14,338.733 1044.8,339.913 1045.16,341.456C1045.44,342.545 1045.44,343.203 1045.16,343.43C1044.89,343.656 1044.39,343.951 1043.67,344.314C1041.58,344.95 1040.04,345.267 1039.04,345.267C1038.04,345.267 1036.91,345.04 1035.64,344.587C1035.18,344.133 1034.66,343.724 1034.07,343.361C1033.48,342.998 1032.48,342.704 1031.08,342.477C1029.67,342.25 1027.47,342.046 1024.47,341.864C1021.93,342.136 1019.71,342.273 1017.81,342.273C1015.9,342.273 1014.95,342.499 1014.95,342.953L1006.92,343.361L1000.25,344.042C999.339,344.133 998.069,344.246 996.435,344.382C994.802,344.518 993.214,344.655 991.671,344.791C990.128,344.927 988.949,345.086 988.132,345.267Z" style="fill-rule:nonzero;"/>
            <path d="M1021.35,415.64C1020.53,415.005 1019.96,414.369 1019.64,413.734C1019.33,413.099 1019.3,411.874 1019.58,410.059C1019.85,407.518 1020.21,405.272 1020.66,403.321C1021.12,401.37 1021.66,399.124 1022.3,396.583C1022.48,395.494 1023,393.634 1023.86,391.003C1024.72,388.371 1025.79,385.512 1027.06,382.427C1028.33,379.342 1029.6,376.415 1030.87,373.648C1032.14,370.88 1033.23,368.815 1034.14,367.454C1034.87,366.91 1035.75,366.683 1036.79,366.774C1037.84,366.864 1038.72,367.273 1039.45,367.999C1040.45,368.815 1040.61,370.245 1039.92,372.286C1039.24,374.328 1037.86,377.527 1035.77,381.883C1034.68,384.333 1033.87,386.17 1033.32,387.395C1032.78,388.62 1032.55,389.346 1032.64,389.573C1032.73,389.8 1033.14,389.687 1033.87,389.233C1034.41,388.235 1035.41,387.078 1036.86,385.762C1038.31,384.446 1039.86,383.153 1041.49,381.883C1043.12,380.612 1044.67,379.478 1046.12,378.48C1047.57,377.482 1048.57,376.846 1049.11,376.574C1049.84,376.12 1050.68,375.735 1051.63,375.417C1052.58,375.099 1053.24,374.85 1053.6,374.668C1055.69,373.67 1057.82,373.307 1060,373.579C1062.18,373.852 1063.54,374.668 1064.09,376.03C1064.18,376.756 1064.47,377.3 1064.97,377.663C1065.47,378.026 1065.72,378.207 1065.72,378.207C1066.08,378.207 1066.29,378.344 1066.33,378.616C1066.38,378.888 1066.4,379.024 1066.4,379.024C1066.4,379.659 1065.92,380.045 1064.97,380.181C1064.02,380.317 1062.82,380.431 1061.36,380.521C1060.18,380.612 1059.14,380.839 1058.23,381.202C1057.33,381.565 1056.24,382.019 1054.97,382.563C1051.52,384.56 1048.23,386.511 1045.1,388.416C1041.97,390.322 1038.95,392.863 1036.05,396.039C1035.41,396.765 1034.78,397.627 1034.14,398.625C1033.5,399.623 1032.82,400.712 1032.1,401.892C1031.64,402.346 1031.19,403.344 1030.74,404.886C1030.28,406.429 1029.9,407.904 1029.58,409.31C1029.26,410.717 1029.1,411.556 1029.1,411.828C1029.1,411.828 1028.97,412.259 1028.69,413.122C1028.42,413.984 1027.97,414.823 1027.33,415.64C1026.25,417.092 1025.34,417.818 1024.61,417.818C1023.88,417.818 1022.8,417.092 1021.35,415.64Z" style="fill-rule:nonzero;"/>
            <path d="M1061.5,453.208C1059.5,453.571 1058.14,453.616 1057.42,453.344C1056.69,453.072 1055.69,452.618 1054.42,451.983C1053.42,451.257 1052.65,450.713 1052.11,450.35C1051.56,449.987 1051.29,449.624 1051.29,449.261C1051.29,448.988 1051.38,448.694 1051.56,448.376C1051.74,448.058 1052.08,447.786 1052.58,447.559C1053.08,447.332 1053.79,447.219 1054.69,447.219C1055.33,447.582 1056.39,447.763 1057.89,447.763C1059.39,447.763 1060.32,447.582 1060.68,447.219C1060.68,447.219 1061.11,446.969 1061.98,446.47C1062.84,445.971 1064,445.586 1065.45,445.313C1068.26,443.952 1070.76,442.228 1072.93,440.141C1075.11,438.054 1077.2,435.331 1079.19,431.974C1080.01,430.703 1080.87,429.229 1081.78,427.55C1082.69,425.871 1083.32,424.215 1083.69,422.582C1084.41,420.767 1085.25,418.317 1086.2,415.231C1087.16,412.146 1088,409.083 1088.72,406.043C1089.45,403.004 1089.86,400.712 1089.95,399.17C1090.49,394.088 1091.38,389.392 1092.6,385.081C1093.83,380.771 1094.89,375.939 1095.8,370.585C1096.35,369.314 1096.75,368.566 1097.03,368.339C1097.3,368.112 1097.89,367.999 1098.8,367.999C1099.79,367.999 1100.54,368.067 1101.04,368.203C1101.54,368.339 1102.11,368.906 1102.74,369.904C1103.65,371.628 1103.99,373.648 1103.76,375.962C1103.54,378.276 1102.83,380.295 1101.65,382.019C1100.75,383.289 1099.95,385.263 1099.27,387.94C1098.59,390.617 1097.93,393.952 1097.3,397.944C1096.84,399.941 1096.37,402.278 1095.87,404.955C1095.37,407.631 1094.85,410.603 1094.3,413.87C1093.94,414.778 1093.44,416.162 1092.81,418.022C1092.17,419.882 1091.76,421.357 1091.58,422.446C1091.49,422.809 1091.22,423.535 1090.76,424.623C1090.31,425.712 1089.86,426.779 1089.4,427.822C1088.95,428.866 1088.63,429.569 1088.45,429.932C1084.91,437.282 1080.87,442.909 1076.34,446.811C1071.8,450.713 1066.85,452.845 1061.5,453.208ZM1071.84,413.734C1070.85,413.734 1069.83,413.19 1068.78,412.101C1067.74,411.012 1067.04,410.15 1066.67,409.514C1066.31,408.607 1065.86,407.745 1065.31,406.928C1064.77,406.112 1064.38,405.113 1064.15,403.934C1063.93,402.754 1064,401.302 1064.36,399.578C1064.72,398.398 1065.24,396.697 1065.92,394.473C1066.6,392.25 1067.38,389.823 1068.24,387.191C1069.1,384.56 1070.01,381.951 1070.96,379.364C1071.91,376.778 1072.8,374.464 1073.61,372.422C1074.43,370.381 1075.16,368.906 1075.79,367.999C1076.34,367.273 1076.95,366.819 1077.63,366.638C1078.31,366.456 1079.01,366.524 1079.74,366.842C1080.46,367.159 1081.1,367.772 1081.64,368.679C1082.64,369.95 1083.05,371.039 1082.87,371.946C1082.69,372.854 1081.87,374.623 1080.42,377.255C1080.06,378.253 1079.6,379.319 1079.06,380.453C1078.51,381.588 1078.24,382.336 1078.24,382.699C1078.15,382.881 1077.99,383.493 1077.77,384.537C1077.54,385.581 1077.29,386.556 1077.02,387.463C1076.74,388.371 1076.47,388.825 1076.2,388.825C1075.84,389.188 1075.43,390.208 1074.97,391.887C1074.52,393.566 1074.11,395.426 1073.75,397.468C1073.39,399.51 1073.16,401.279 1073.07,402.777C1072.98,404.274 1073.12,405.023 1073.48,405.023C1076.29,405.023 1079.22,403.934 1082.26,401.756C1085.3,399.578 1088.36,396.402 1091.44,392.228L1093.76,401.892C1092.49,402.527 1091.31,403.185 1090.22,403.866C1089.13,404.546 1088.13,405.34 1087.22,406.248C1086.95,406.611 1086.32,407.11 1085.32,407.745C1084.32,408.38 1083.35,408.947 1082.39,409.446C1081.44,409.945 1080.83,410.195 1080.56,410.195C1080.56,410.195 1080.44,410.218 1080.21,410.263C1079.99,410.308 1079.88,410.513 1079.88,410.876C1079.88,411.057 1079.29,411.397 1078.11,411.897C1076.93,412.396 1075.7,412.827 1074.43,413.19C1073.16,413.553 1072.3,413.734 1071.84,413.734Z" style="fill-rule:nonzero;"/>
            <path d="M1136.36,416.048C1135.64,415.322 1135.12,414.415 1134.8,413.326C1134.48,412.237 1134.37,411.148 1134.46,410.059C1134.55,408.97 1134.78,408.063 1135.14,407.337C1135.14,406.611 1135.25,406.043 1135.48,405.635C1135.71,405.227 1135.77,404.841 1135.68,404.478C1135.59,404.115 1135.68,403.48 1135.95,402.572C1136.23,401.665 1136.5,400.803 1136.77,399.986C1137.41,398.534 1138.09,396.787 1138.81,394.746C1139.54,392.704 1140.22,390.685 1140.86,388.689C1141.49,386.692 1142.04,384.968 1142.49,383.516C1142.94,382.064 1143.21,381.157 1143.31,380.794C1143.31,379.705 1144.03,379.115 1145.48,379.024C1146.57,378.661 1147.39,378.639 1147.93,378.956C1148.48,379.274 1149.2,380.158 1150.11,381.61C1150.84,382.336 1151.11,383.425 1150.93,384.877C1150.75,386.329 1150.16,388.144 1149.16,390.322C1148.8,391.048 1148.37,392.091 1147.87,393.453C1147.37,394.814 1147.03,396.039 1146.85,397.128C1146.48,397.854 1146.05,398.875 1145.55,400.19C1145.05,401.506 1144.62,402.754 1144.26,403.934C1144.08,404.387 1143.9,405.045 1143.71,405.907C1143.53,406.769 1143.31,407.677 1143.03,408.63C1142.76,409.583 1142.4,410.422 1141.94,411.148C1141.13,414.868 1140.38,417.046 1139.7,417.681C1139.02,418.317 1137.91,417.772 1136.36,416.048ZM1149.57,360.784C1149.11,360.331 1148.7,359.673 1148.34,358.811C1147.98,357.949 1147.75,357.132 1147.66,356.361C1147.57,355.589 1147.66,355.204 1147.93,355.204C1148.66,355.113 1149.52,354.342 1150.52,352.89C1151.52,351.438 1151.93,350.167 1151.75,349.078C1151.75,348.715 1151.88,348.375 1152.15,348.058C1152.43,347.74 1152.74,347.536 1153.11,347.445C1154.19,346.719 1155.26,346.606 1156.31,347.105C1157.35,347.604 1158.32,348.579 1159.23,350.031C1160.05,351.755 1160.28,353.185 1159.91,354.319C1159.55,355.453 1158.55,357.019 1156.92,359.015C1155.56,360.83 1154.31,361.828 1153.17,362.01C1152.04,362.191 1150.84,361.783 1149.57,360.784Z" style="fill-rule:nonzero;"/>
            <path d="M1168.49,427.21C1165.49,426.756 1163.47,425.644 1162.43,423.875C1161.39,422.105 1161.14,419.406 1161.68,415.776C1162.23,414.052 1162.57,412.486 1162.7,411.08C1162.84,409.673 1163.22,408.788 1163.86,408.426C1163.86,408.426 1163.93,408.289 1164.06,408.017C1164.2,407.745 1164.13,407.473 1163.86,407.2C1163.86,406.021 1164.27,404.387 1165.08,402.3C1165.27,401.756 1165.52,401.098 1165.83,400.327C1166.15,399.555 1166.31,399.17 1166.31,399.17C1165.86,398.444 1165.86,397.854 1166.31,397.4C1166.76,396.946 1167.24,396.515 1167.74,396.107C1168.24,395.699 1168.26,395.222 1167.81,394.678C1167.62,394.315 1167.85,393.475 1168.49,392.16C1169.12,390.844 1169.85,389.46 1170.66,388.008C1171.48,386.556 1172.03,385.422 1172.3,384.605C1172.3,384.424 1172.53,383.788 1172.98,382.699C1173.43,381.61 1173.98,380.34 1174.61,378.888C1175.25,377.436 1175.86,376.12 1176.45,374.941C1177.04,373.761 1177.43,372.99 1177.61,372.627C1178.52,372.173 1178.15,371.855 1176.52,371.674C1174.88,371.492 1173.16,371.447 1171.35,371.538C1168.53,371.447 1166.29,371.311 1164.61,371.129C1162.93,370.948 1161.55,370.54 1160.46,369.904C1159.37,368.634 1158.98,367.704 1159.3,367.114C1159.62,366.524 1160.68,366.184 1162.5,366.093C1163.68,366.002 1164.61,365.957 1165.29,365.957C1165.97,365.957 1166.88,365.889 1168.01,365.753C1169.14,365.617 1170.94,365.412 1173.39,365.14L1180.33,364.596L1180.74,362.282C1181.46,361.102 1182.08,360.036 1182.58,359.083C1183.08,358.13 1183.51,357.155 1183.87,356.156C1184.23,355.158 1184.5,354.115 1184.68,353.026C1184.68,353.026 1185.09,352.277 1185.91,350.78C1186.73,349.283 1187.23,347.717 1187.41,346.084C1188.5,344.269 1189.45,342.613 1190.27,341.116C1191.08,339.618 1191.58,338.688 1191.76,338.325C1192.76,337.508 1193.46,337.1 1193.87,337.1C1194.28,337.1 1195.17,337.554 1196.53,338.461C1197.34,338.915 1198.07,339.459 1198.7,340.095C1199.34,340.73 1199.75,341.388 1199.93,342.068C1200.11,342.749 1199.84,343.407 1199.11,344.042C1198.93,344.405 1198.66,345.063 1198.3,346.016C1197.93,346.969 1197.66,347.763 1197.48,348.398C1196.94,349.033 1196.28,350.054 1195.51,351.46C1194.74,352.867 1194.21,354.296 1193.94,355.748C1193.21,357.291 1192.54,358.675 1191.9,359.9C1191.26,361.125 1190.77,361.737 1190.4,361.737C1190.58,362.645 1191.13,363.076 1192.04,363.03C1192.94,362.985 1194.44,362.917 1196.53,362.826C1198.25,362.645 1199.45,362.441 1200.13,362.214C1200.82,361.987 1201.61,362.1 1202.52,362.554C1202.97,363.189 1203.33,363.915 1203.61,364.732C1203.88,365.549 1203.95,366.297 1203.81,366.978C1203.67,367.658 1203.29,368.135 1202.65,368.407C1202.2,368.407 1201.27,368.657 1199.86,369.156C1198.46,369.655 1196.71,369.95 1194.62,370.04L1187.41,370.721L1185.09,375.349C1184.46,376.529 1183.91,377.595 1183.46,378.548C1183.01,379.501 1182.69,380.068 1182.51,380.249C1182.51,380.794 1182.21,381.61 1181.62,382.699C1181.03,383.788 1180.42,384.968 1179.79,386.238C1179.24,387.781 1178.63,389.188 1177.95,390.458C1177.27,391.728 1176.93,392.364 1176.93,392.364C1176.56,392.364 1176.38,392.636 1176.38,393.18C1176.84,394.269 1176.7,395.086 1175.97,395.63C1175.52,395.903 1175.13,396.288 1174.82,396.787C1174.5,397.287 1174.34,397.536 1174.34,397.536C1174.7,397.899 1174.77,398.353 1174.55,398.897C1174.32,399.442 1174.02,400.032 1173.66,400.667C1173.66,401.393 1173.46,402.436 1173.05,403.798C1172.64,405.159 1172.21,406.429 1171.75,407.609C1171.85,409.242 1171.94,410.286 1172.03,410.74C1172.12,411.193 1172.34,411.375 1172.71,411.284C1173.16,411.375 1173.57,411.375 1173.93,411.284C1174.3,411.193 1174.66,411.148 1175.02,411.148C1176.29,410.603 1175.61,413.779 1172.98,420.676C1171.53,422.945 1170.53,424.601 1169.99,425.644C1169.44,426.688 1168.94,427.21 1168.49,427.21Z" style="fill-rule:nonzero;"/>
            <path d="M1240.36,415.231C1238.45,415.594 1237.25,415.708 1236.75,415.572C1236.25,415.436 1235.5,414.914 1234.5,414.006C1233.05,413.28 1231.85,412.373 1230.9,411.284C1229.94,410.195 1229.26,409.038 1228.86,407.813C1228.45,406.588 1228.29,405.567 1228.38,404.75C1228.65,401.574 1229.42,398.171 1230.69,394.542C1231.96,390.912 1233.51,387.418 1235.32,384.061C1237.14,380.703 1239.11,377.822 1241.24,375.417C1243.38,373.012 1245.44,371.447 1247.43,370.721C1249.25,369.995 1250.97,369.723 1252.61,369.904C1254.24,370.086 1255.42,370.948 1256.15,372.491C1257.51,375.122 1257.19,376.801 1255.19,377.527C1254.92,377.527 1254.6,377.64 1254.24,377.867C1253.88,378.094 1253.7,378.389 1253.7,378.752C1254.06,378.933 1255.06,378.956 1256.69,378.82C1258.33,378.684 1259.98,378.412 1261.66,378.003C1263.34,377.595 1264.45,377.164 1265,376.71C1265.54,376.438 1265.95,376.302 1266.22,376.302C1266.49,376.302 1267.17,376.393 1268.26,376.574C1269.8,377.028 1270.58,377.572 1270.58,378.207C1270.58,378.57 1270.71,378.911 1270.98,379.228C1271.26,379.546 1271.57,379.705 1271.94,379.705C1272.57,379.796 1272.5,380.204 1271.73,380.93C1270.96,381.656 1269.67,382.654 1267.85,383.924C1266.13,385.013 1265.06,385.717 1264.65,386.034C1264.25,386.352 1264.18,387.01 1264.45,388.008C1265.18,389.732 1265.22,391.728 1264.59,393.997C1263.95,396.266 1262.82,398.58 1261.18,400.939C1259.55,403.298 1257.58,405.499 1255.26,407.541C1252.95,409.583 1250.5,411.307 1247.91,412.713C1245.33,414.12 1242.81,414.959 1240.36,415.231ZM1238.04,409.242C1238.41,409.242 1239.04,409.038 1239.95,408.63C1240.86,408.221 1241.58,407.881 1242.13,407.609C1242.49,407.246 1242.97,406.815 1243.56,406.316C1244.15,405.817 1244.62,405.522 1244.99,405.431C1245.35,405.431 1245.8,405.272 1246.35,404.955C1246.89,404.637 1247.66,403.956 1248.66,402.913C1249.66,401.869 1250.97,400.304 1252.61,398.217C1254.42,396.22 1255.83,394.383 1256.83,392.704C1257.83,391.025 1258.1,389.46 1257.64,388.008C1257.55,387.645 1257.3,387.418 1256.9,387.327C1256.49,387.237 1255.96,387.01 1255.33,386.647C1254.42,386.647 1253.58,386.397 1252.81,385.898C1252.04,385.399 1251.16,384.741 1250.16,383.924L1247.98,381.202L1245.67,383.516C1244.21,384.968 1242.69,387.123 1241.11,389.982C1239.52,392.84 1238.18,395.744 1237.09,398.693C1236,401.642 1235.37,403.979 1235.18,405.703C1235.09,407.064 1235.32,407.972 1235.87,408.426C1236.41,408.879 1237.14,409.151 1238.04,409.242Z" style="fill-rule:nonzero;"/>
            <path d="M1279.56,413.462C1277.84,411.919 1276.54,410.331 1275.68,408.698C1274.82,407.064 1274.16,404.478 1273.71,400.939C1273.53,399.306 1273.71,397.15 1274.25,394.473C1274.8,391.797 1275.57,388.961 1276.56,385.966C1277.56,382.972 1278.7,380.227 1279.97,377.731C1281.24,375.236 1282.51,373.353 1283.78,372.082C1284.87,370.721 1285.75,369.972 1286.43,369.836C1287.11,369.7 1288.36,370.04 1290.18,370.857C1291.17,372.037 1291.67,373.307 1291.67,374.668C1291.67,376.03 1291.13,377.572 1290.04,379.296C1288.23,381.747 1286.66,384.809 1285.34,388.484C1284.03,392.16 1283.14,395.449 1282.69,398.353C1281.78,401.438 1281.37,403.525 1281.46,404.614C1281.56,405.703 1282.37,406.429 1283.91,406.792C1285.64,407.155 1287.68,406.497 1290.04,404.818C1292.4,403.14 1294.71,400.78 1296.98,397.74C1299.25,394.7 1301.07,391.365 1302.43,387.736C1302.97,386.465 1303.4,384.968 1303.72,383.244C1304.04,381.52 1304.38,380.249 1304.74,379.433C1305.19,377.618 1305.83,376.279 1306.65,375.417C1307.46,374.555 1308.33,374.056 1309.23,373.92C1310.14,373.784 1310.91,373.988 1311.55,374.532C1312.36,374.895 1312.86,375.326 1313.04,375.825C1313.23,376.325 1313.23,377.618 1313.04,379.705C1313.04,383.062 1312.32,385.921 1310.87,388.28C1309.41,390.64 1308.19,393.135 1307.19,395.767C1306.37,397.672 1305.17,399.805 1303.58,402.164C1302,404.523 1300.27,406.656 1298.41,408.562C1296.55,410.467 1294.76,411.783 1293.04,412.509C1290.49,414.142 1288.25,414.936 1286.3,414.891C1284.35,414.846 1282.1,414.369 1279.56,413.462Z" style="fill-rule:nonzero;"/>
            <path d="M1327.06,419.451C1326.07,419.27 1325.05,418.748 1324,417.886C1322.96,417.024 1322.05,416.025 1321.28,414.891C1320.51,413.757 1319.99,412.736 1319.71,411.828C1319.71,411.647 1319.6,411.42 1319.37,411.148C1319.15,410.876 1319.03,410.74 1319.03,410.74C1318.67,410.467 1318.47,409.265 1318.42,407.132C1318.38,405 1318.49,402.618 1318.76,399.986C1319.03,397.355 1319.35,395.268 1319.71,393.725C1320.17,392.273 1320.85,390.299 1321.76,387.804C1322.66,385.308 1323.43,383.062 1324.07,381.066L1327.75,373.171L1322.3,371.674C1321.66,371.492 1321.14,371.129 1320.74,370.585C1320.33,370.04 1320.12,369.587 1320.12,369.224C1320.12,368.498 1320.53,367.613 1321.35,366.569C1322.16,365.526 1322.75,365.004 1323.12,365.004C1323.57,365.095 1324.41,365.14 1325.63,365.14C1326.86,365.14 1328.06,365.095 1329.24,365.004C1330.42,364.913 1331.15,364.823 1331.42,364.732C1331.78,364.55 1332.15,364.301 1332.51,363.983C1332.87,363.666 1333.14,363.189 1333.33,362.554C1333.78,361.556 1334.19,360.626 1334.55,359.764C1334.91,358.902 1335.41,357.926 1336.05,356.837C1336.68,355.657 1337.2,354.659 1337.61,353.842C1338.02,353.026 1338.68,351.891 1339.59,350.44C1340.04,349.804 1340.54,349.033 1341.08,348.126C1341.63,347.218 1342.31,346.447 1343.13,345.812C1343.94,345.086 1344.78,344.745 1345.64,344.791C1346.51,344.836 1347.62,345.449 1348.98,346.628C1349.7,347.536 1350.11,348.216 1350.2,348.67C1350.3,349.124 1349.93,349.986 1349.12,351.256C1348.39,352.799 1347.55,354.342 1346.6,355.884C1345.64,357.427 1344.76,358.97 1343.94,360.512C1342.49,362.509 1342.22,363.643 1343.13,363.915C1344.03,364.187 1346.57,364.006 1350.75,363.371C1353.38,362.917 1355.29,363.03 1356.46,363.711C1357.64,364.392 1358.33,365.503 1358.51,367.046C1358.78,369.224 1358.55,370.54 1357.83,370.993C1357.1,371.447 1355.01,371.674 1351.57,371.674C1349.39,372.037 1347.53,372.241 1345.98,372.286C1344.44,372.332 1343.31,372.354 1342.58,372.354C1341.4,372.445 1340.63,372.491 1340.27,372.491C1339.9,372.491 1339.36,372.581 1338.63,372.763C1337.91,372.944 1337.39,373.239 1337.07,373.648C1336.75,374.056 1336.41,374.623 1336.05,375.349C1335.68,375.712 1335.14,376.665 1334.41,378.207C1333.69,379.75 1332.78,381.429 1331.69,383.244C1330.42,387.055 1329.33,390.844 1328.42,394.61C1327.52,398.376 1326.79,402.028 1326.25,405.567C1325.88,407.836 1325.93,409.401 1326.38,410.263C1326.84,411.125 1328.02,411.647 1329.92,411.828C1330.92,411.919 1332.53,411.897 1334.76,411.76C1336.98,411.624 1338.73,411.375 1340,411.012C1340.99,410.558 1342.04,410.082 1343.13,409.583C1344.21,409.083 1345.21,408.562 1346.12,408.017C1346.94,407.563 1347.75,407.087 1348.57,406.588C1349.39,406.089 1349.8,405.839 1349.8,405.839C1350.25,405.113 1350.75,404.886 1351.29,405.159C1351.84,405.431 1352.29,406.112 1352.65,407.2C1352.65,408.289 1352.43,409.424 1351.97,410.603C1351.52,411.783 1349.84,413.19 1346.94,414.823C1342.85,417.364 1339.11,418.884 1335.71,419.383C1332.3,419.882 1329.42,419.905 1327.06,419.451Z" style="fill-rule:nonzero;"/>
            <path d="M1370.49,397.264C1367.94,397.718 1366.27,396.493 1365.45,393.589C1364.63,390.685 1364.86,386.692 1366.13,381.61C1366.67,380.521 1367.13,379.455 1367.49,378.412C1367.85,377.368 1368.04,376.529 1368.04,375.893C1368.4,374.714 1368.88,373.33 1369.46,371.742C1370.05,370.154 1370.67,368.657 1371.3,367.25C1371.94,365.843 1372.39,364.913 1372.66,364.46C1373.03,364.46 1373.41,364.142 1373.82,363.507C1374.23,362.872 1374.43,362.236 1374.43,361.601C1374.43,360.875 1374.59,360.059 1374.91,359.151C1375.23,358.244 1375.57,357.608 1375.93,357.245C1375.93,356.792 1376.11,356.293 1376.48,355.748C1376.84,355.204 1377.02,354.75 1377.02,354.387C1377.02,354.024 1377.13,353.706 1377.36,353.434C1377.59,353.162 1377.7,352.844 1377.7,352.481C1378.52,351.029 1379.58,348.874 1380.9,346.016C1382.21,343.157 1383.53,340.14 1384.85,336.964C1386.16,333.788 1387.27,330.975 1388.18,328.525C1389.09,326.075 1389.54,324.577 1389.54,324.033C1389.72,323.307 1390,322.762 1390.36,322.399C1390.72,322.036 1391.27,321.946 1391.99,322.127C1392.36,321.855 1392.72,321.696 1393.08,321.651C1393.44,321.605 1393.81,321.583 1394.17,321.583C1394.17,321.583 1395.44,323.035 1396.08,323.761C1396.8,324.396 1397.21,325.122 1397.3,325.938C1397.39,326.755 1397.44,327.708 1397.44,328.797C1397.35,330.521 1396.71,332.472 1395.53,334.65C1394.35,336.828 1393.04,339.233 1391.58,341.864C1390.68,343.588 1389.79,345.222 1388.93,346.764C1388.07,348.307 1387.64,349.26 1387.64,349.623C1387.64,349.986 1387.45,350.53 1387.09,351.256C1386.73,351.982 1386.32,352.89 1385.87,353.979C1385.32,354.886 1384.73,355.975 1384.1,357.245C1383.46,358.516 1382.89,359.673 1382.4,360.716C1381.9,361.76 1381.65,362.418 1381.65,362.69C1381.56,363.053 1381.44,363.416 1381.31,363.779C1381.17,364.142 1380.92,364.505 1380.56,364.868C1380.19,364.868 1379.99,365.118 1379.95,365.617C1379.9,366.116 1379.88,366.365 1379.88,366.365C1379.88,366.728 1379.67,367.568 1379.27,368.883C1378.86,370.199 1378.2,371.765 1377.29,373.579C1375.57,378.389 1374.34,382.223 1373.62,385.081C1372.89,387.94 1372.44,390.367 1372.26,392.364C1372.07,394.542 1371.91,395.812 1371.78,396.175C1371.64,396.538 1371.21,396.901 1370.49,397.264ZM1363.13,419.043C1361.41,419.678 1359.98,419.973 1358.85,419.927C1357.71,419.882 1356.46,419.36 1355.1,418.362C1353.38,416.729 1352.81,415.073 1353.4,413.394C1353.99,411.715 1355.47,410.059 1357.83,408.426C1359.46,407.427 1360.66,406.883 1361.43,406.792C1362.2,406.701 1363.41,407.019 1365.04,407.745C1367.76,409.469 1368.96,411.375 1368.65,413.462C1368.33,415.549 1366.49,417.409 1363.13,419.043Z" style="fill-rule:nonzero;"/>
        </g>
        <g transform="matrix(3.40935,-2.39529,2.39529,3.40935,342.138,-561.293)">
            <path d="M80.904,346.063C80.484,345.799 80.064,345.535 79.644,345.27C79.548,345.131 79.403,345.031 79.206,344.996C77.086,343.663 74.966,342.33 72.846,340.996C71.867,340.381 70.965,341.932 71.941,342.545C73.308,343.403 74.675,344.262 76.042,345.12C66.919,345.38 40.871,342.28 32.223,339.391C22.47,336.133 11.169,328.088 15.34,316.26C15.521,315.747 14.726,315.545 14.532,316.038C10.877,325.359 17.452,333.97 25.506,338.149C35.467,343.317 64.73,347.049 76.052,346.807C74.129,348.073 72.158,349.239 70.085,350.298C69.173,350.764 69.816,352.15 70.766,351.912C74.425,350.997 77.701,349.607 80.904,347.607C81.482,347.245 81.479,346.426 80.904,346.063Z" style="fill-rule:nonzero;"/>
        </g>
    </g>
</svg>
